<?xml version="1.0" encoding="UTF-8" standalone="no"?>
<!DOCTYPE svg PUBLIC "-//W3C//DTD SVG 1.1//EN"
 "http://www.w3.org/Graphics/SVG/1.1/DTD/svg11.dtd">
<!-- Generated by graphviz version 12.2.1 (20241206.2353)
 -->
<!-- Title: G Pages: 1 -->
<svg width="685pt" height="297pt"
 viewBox="0.00 0.00 684.83 297.00" xmlns="http://www.w3.org/2000/svg" xmlns:xlink="http://www.w3.org/1999/xlink">
<g id="graph0" class="graph" transform="scale(1 1) rotate(0) translate(4 293)">
<title>G</title><style>.edge>path:hover{stroke-width:8}</style>
<polygon fill="white" stroke="none" points="-4,4 -4,-293 680.83,-293 680.83,4 -4,4"/>
<!-- count_elements -->
<g id="node1" class="node">
<title>count_elements</title><style>.edge>path:hover{stroke-width:8}</style>
<ellipse fill="#a9b34c" stroke="black" cx="625.72" cy="-127" rx="51.11" ry="18"/>
<text text-anchor="middle" x="625.72" y="-123.5" font-family="Helvetica,sans-Serif" font-size="10.00" fill="#000000">count_elements</text>
</g>
<!-- main_py -->
<g id="node6" class="node">
<title>main_py</title><style>.edge>path:hover{stroke-width:8}</style>
<ellipse fill="#446e7e" stroke="black" cx="333.72" cy="-18" rx="30.37" ry="18"/>
<text text-anchor="middle" x="333.72" y="-14.5" font-family="Helvetica,sans-Serif" font-size="10.00" fill="#ffffff">main.py</text>
</g>
<!-- count_elements&#45;&gt;main_py -->
<g id="edge1" class="edge">
<title>count_elements&#45;&gt;main_py</title><style>.edge>path:hover{stroke-width:8}</style>
<path fill="none" stroke="black" d="M587.81,-114.5C580.52,-112.51 572.91,-110.57 565.72,-109 514.75,-97.87 329.86,-125.03 333.72,-73"/>
</g>
<!-- disparity -->
<g id="node2" class="node">
<title>disparity</title><style>.edge>path:hover{stroke-width:8}</style>
<ellipse fill="#77b653" stroke="black" cx="31.72" cy="-127" rx="31.72" ry="18"/>
<text text-anchor="middle" x="31.72" y="-123.5" font-family="Helvetica,sans-Serif" font-size="10.00" fill="#000000">disparity</text>
</g>
<!-- disparity&#45;&gt;main_py -->
<g id="edge2" class="edge">
<title>disparity&#45;&gt;main_py</title><style>.edge>path:hover{stroke-width:8}</style>
<path fill="none" stroke="black" d="M333.72,-72C334.31,-64.08 334.5,-55.47 334.5,-47.54"/>
<polygon fill="#77b653" stroke="black" points="338,-47.68 334.38,-37.72 331,-47.76 338,-47.68"/>
<path fill="none" stroke="black" d="M55.46,-114.69C60.72,-112.53 66.34,-110.49 71.72,-109 128.37,-93.37 329.37,-131.61 333.72,-73"/>
</g>
<!-- diversity -->
<g id="node3" class="node">
<title>diversity</title><style>.edge>path:hover{stroke-width:8}</style>
<ellipse fill="#53b665" stroke="black" cx="112.72" cy="-127" rx="31.72" ry="18"/>
<text text-anchor="middle" x="112.72" y="-123.5" font-family="Helvetica,sans-Serif" font-size="10.00" fill="#000000">diversity</text>
</g>
<!-- diversity&#45;&gt;main_py -->
<g id="edge3" class="edge">
<title>diversity&#45;&gt;main_py</title><style>.edge>path:hover{stroke-width:8}</style>
<path fill="none" stroke="black" d="M137.15,-114.96C142.54,-112.78 148.27,-110.66 153.72,-109 192.75,-97.13 330.7,-113.68 333.72,-73"/>
</g>
<!-- GenerationFactors -->
<g id="node4" class="node">
<title>GenerationFactors</title><style>.edge>path:hover{stroke-width:8}</style>
<ellipse fill="#b65353" stroke="black" cx="220.72" cy="-127" rx="57.88" ry="18"/>
<text text-anchor="middle" x="220.72" y="-123.5" font-family="Helvetica,sans-Serif" font-size="10.00" fill="#ffffff">GenerationFactors</text>
</g>
<!-- GenerationFactors&#45;&gt;main_py -->
<g id="edge4" class="edge">
<title>GenerationFactors&#45;&gt;main_py</title><style>.edge>path:hover{stroke-width:8}</style>
<path fill="none" stroke="black" d="M263.13,-114.3C294.7,-104.31 332.53,-89.04 333.72,-73"/>
</g>
<!-- itertools -->
<g id="node5" class="node">
<title>itertools</title><style>.edge>path:hover{stroke-width:8}</style>
<ellipse fill="#53b69b" stroke="black" cx="430.72" cy="-199" rx="30.37" ry="18"/>
<text text-anchor="middle" x="430.72" y="-195.5" font-family="Helvetica,sans-Serif" font-size="10.00" fill="#000000">itertools</text>
</g>
<!-- Redundancy -->
<g id="node11" class="node">
<title>Redundancy</title><style>.edge>path:hover{stroke-width:8}</style>
<ellipse fill="#b3844c" stroke="black" cx="430.72" cy="-127" rx="42.54" ry="18"/>
<text text-anchor="middle" x="430.72" y="-123.5" font-family="Helvetica,sans-Serif" font-size="10.00" fill="#000000">Redundancy</text>
</g>
<!-- itertools&#45;&gt;Redundancy -->
<g id="edge5" class="edge">
<title>itertools&#45;&gt;Redundancy</title><style>.edge>path:hover{stroke-width:8}</style>
<path fill="none" stroke="black" d="M430.72,-180.7C430.72,-173.41 430.72,-164.73 430.72,-156.54"/>
<polygon fill="#53b69b" stroke="black" points="434.22,-156.62 430.72,-146.62 427.22,-156.62 434.22,-156.62"/>
</g>
<!-- math -->
<g id="node7" class="node">
<title>math</title><style>.edge>path:hover{stroke-width:8}</style>
<ellipse fill="#5365b6" stroke="black" cx="625.72" cy="-199" rx="27" ry="18"/>
<text text-anchor="middle" x="625.72" y="-195.5" font-family="Helvetica,sans-Serif" font-size="10.00" fill="#ffffff">math</text>
</g>
<!-- math&#45;&gt;count_elements -->
<g id="edge6" class="edge">
<title>math&#45;&gt;count_elements</title><style>.edge>path:hover{stroke-width:8}</style>
<path fill="none" stroke="black" d="M625.72,-180.7C625.72,-173.41 625.72,-164.73 625.72,-156.54"/>
<polygon fill="#5365b6" stroke="black" points="629.22,-156.62 625.72,-146.62 622.22,-156.62 629.22,-156.62"/>
</g>
<!-- matplotlib -->
<g id="node8" class="node">
<title>matplotlib</title><style>.edge>path:hover{stroke-width:8}</style>
<polygon fill="blue" stroke="black" points="539.72,-217 481.72,-217 481.72,-181 539.72,-181 539.72,-217"/>
<text text-anchor="middle" x="510.72" y="-195.5" font-family="Helvetica,sans-Serif" font-size="10.00" fill="white">matplotlib</text>
</g>
<!-- visualize -->
<g id="node12" class="node">
<title>visualize</title><style>.edge>path:hover{stroke-width:8}</style>
<ellipse fill="#ac497f" stroke="black" cx="523.72" cy="-127" rx="32.62" ry="18"/>
<text text-anchor="middle" x="523.72" y="-123.5" font-family="Helvetica,sans-Serif" font-size="10.00" fill="#ffffff">visualize</text>
</g>
<!-- matplotlib&#45;&gt;visualize -->
<g id="edge7" class="edge">
<title>matplotlib&#45;&gt;visualize</title><style>.edge>path:hover{stroke-width:8}</style>
<path fill="none" stroke="black" d="M513.93,-180.7C515.3,-173.32 516.94,-164.52 518.47,-156.25"/>
<polygon fill="blue" stroke="black" points="521.88,-157.06 520.27,-146.59 515,-155.79 521.88,-157.06"/>
</g>
<!-- matplotlib_pyplot -->
<g id="node9" class="node">
<title>matplotlib_pyplot</title><style>.edge>path:hover{stroke-width:8}</style>
<polygon fill="blue" stroke="black" points="569.22,-289 508.22,-289 508.22,-253 569.22,-253 569.22,-289"/>
<text text-anchor="middle" x="538.72" y="-273.5" font-family="Helvetica,sans-Serif" font-size="10.00" fill="white">matplotlib.</text>
<text text-anchor="middle" x="538.72" y="-261.5" font-family="Helvetica,sans-Serif" font-size="10.00" fill="white">pyplot</text>
</g>
<!-- matplotlib_pyplot&#45;&gt;matplotlib -->
<g id="edge8" class="edge">
<title>matplotlib_pyplot&#45;&gt;matplotlib</title><style>.edge>path:hover{stroke-width:8}</style>
<path fill="none" stroke="black" d="M531.8,-252.7C528.78,-245.15 525.17,-236.12 521.79,-227.68"/>
<polygon fill="blue" stroke="black" points="525.09,-226.49 518.12,-218.51 518.59,-229.09 525.09,-226.49"/>
</g>
<!-- matplotlib_pyplot&#45;&gt;visualize -->
<g id="edge9" class="edge">
<title>matplotlib_pyplot&#45;&gt;visualize</title><style>.edge>path:hover{stroke-width:8}</style>
<path fill="none" stroke="black" d="M544,-252.76C548.76,-234.69 554.23,-205.58 548.72,-181 546.71,-172.03 543,-162.78 539.05,-154.58"/>
<polygon fill="blue" stroke="black" points="542.23,-153.11 534.52,-145.84 536.02,-156.33 542.23,-153.11"/>
</g>
<!-- modularity -->
<g id="node10" class="node">
<title>modularity</title><style>.edge>path:hover{stroke-width:8}</style>
<ellipse fill="#ad53b6" stroke="black" cx="333.72" cy="-127" rx="36.68" ry="18"/>
<text text-anchor="middle" x="333.72" y="-123.5" font-family="Helvetica,sans-Serif" font-size="10.00" fill="#ffffff">modularity</text>
</g>
<!-- modularity&#45;&gt;main_py -->
<g id="edge10" class="edge">
<title>modularity&#45;&gt;main_py</title><style>.edge>path:hover{stroke-width:8}</style>
<path fill="none" stroke="black" d="M333.08,-108.79C332.85,-98.41 332.83,-84.93 333.72,-73"/>
</g>
<!-- Redundancy&#45;&gt;main_py -->
<g id="edge11" class="edge">
<title>Redundancy&#45;&gt;main_py</title><style>.edge>path:hover{stroke-width:8}</style>
<path fill="none" stroke="black" d="M397.92,-115.09C369.34,-104.55 332.6,-88.02 333.72,-73"/>
</g>
<!-- visualize&#45;&gt;main_py -->
<g id="edge12" class="edge">
<title>visualize&#45;&gt;main_py</title><style>.edge>path:hover{stroke-width:8}</style>
<path fill="none" stroke="black" d="M498.8,-114.94C493.55,-112.82 488,-110.72 482.72,-109 450.33,-98.44 331.2,-106.97 333.72,-73"/>
</g>
</g>
</svg>
